<?xml version="1.0" encoding="UTF-8"?><svg xmlns="http://www.w3.org/2000/svg" xmlns:xlink="http://www.w3.org/1999/xlink" contentStyleType="text/css" height="433px" preserveAspectRatio="none" style="width:924px;height:433px;background:#FFFFFF;" version="1.1" viewBox="0 0 924 433" width="924px" zoomAndPan="magnify">
    <defs/>
    <g>
        <!--cluster I3-->
        <g id="cluster_I3">
            <path d="M8.5,6 L21.5,6 A3.75,3.75 0 0 1 24,8.5 L31,29.6094 L625.5,29.6094 A2.5,2.5 0 0 1 628,32.1094 L628,423.5 A2.5,2.5 0 0 1 625.5,426 L8.5,426 A2.5,2.5 0 0 1 6,423.5 L6,8.5 A2.5,2.5 0 0 1 8.5,6 " fill="none" style="stroke:#000000;stroke-width:1.5;"/>
            <line style="stroke:#000000;stroke-width:1.5;" x1="6" x2="31" y1="29.6094" y2="29.6094"/>
            <text fill="#000000" font-family="sans-serif" font-size="14" font-weight="bold" lengthAdjust="spacing" textLength="12" x="10" y="22.5332">I3</text>
        </g>
        <!--cluster Classes-->
        <g id="cluster_Classes">
            <path d="M32.5,50 L88.5,50 A3.75,3.75 0 0 1 91,52.5 L98,73.6094 L601.5,73.6094 A2.5,2.5 0 0 1 604,76.1094 L604,399.5 A2.5,2.5 0 0 1 601.5,402 L32.5,402 A2.5,2.5 0 0 1 30,399.5 L30,52.5 A2.5,2.5 0 0 1 32.5,50 " fill="none" style="stroke:#000000;stroke-width:1.5;"/>
            <line style="stroke:#000000;stroke-width:1.5;" x1="30" x2="98" y1="73.6094" y2="73.6094"/>
            <text fill="#000000" font-family="sans-serif" font-size="14" font-weight="bold" lengthAdjust="spacing" textLength="55" x="34" y="66.5332">Classes</text>
        </g>
        <!--cluster java-->
        <g id="cluster_java">
            <path d="M654.5,150 L684.5,150 A3.75,3.75 0 0 1 687,152.5 L694,173.6094 L914.5,173.6094 A2.5,2.5 0 0 1 917,176.1094 L917,315.5 A2.5,2.5 0 0 1 914.5,318 L654.5,318 A2.5,2.5 0 0 1 652,315.5 L652,152.5 A2.5,2.5 0 0 1 654.5,150 " fill="none" style="stroke:#000000;stroke-width:1.5;"/>
            <line style="stroke:#000000;stroke-width:1.5;" x1="652" x2="694" y1="173.6094" y2="173.6094"/>
            <text fill="#000000" font-family="sans-serif" font-size="14" font-weight="bold" lengthAdjust="spacing" textLength="29" x="656" y="166.5332">java</text>
        </g>
        <!--cluster util-->
        <g id="cluster_util">
            <path d="M678.5,194 L701.5,194 A3.75,3.75 0 0 1 704,196.5 L711,217.6094 L890.5,217.6094 A2.5,2.5 0 0 1 893,220.1094 L893,291.5 A2.5,2.5 0 0 1 890.5,294 L678.5,294 A2.5,2.5 0 0 1 676,291.5 L676,196.5 A2.5,2.5 0 0 1 678.5,194 " fill="none" style="stroke:#000000;stroke-width:1.5;"/>
            <line style="stroke:#000000;stroke-width:1.5;" x1="676" x2="711" y1="217.6094" y2="217.6094"/>
            <text fill="#000000" font-family="sans-serif" font-size="14" font-weight="bold" lengthAdjust="spacing" textLength="22" x="680" y="210.5332">util</text>
        </g>
        <!--class Booking-->
        <g id="elem_Booking">
            <rect codeLine="1" fill="#F1F1F1" height="48" id="Booking" rx="2.5" ry="2.5" style="stroke:#181818;stroke-width:0.5;" width="83" x="311.5" y="86"/>
            <ellipse cx="326.5" cy="102" fill="#ADD1B2" rx="11" ry="11" style="stroke:#181818;stroke-width:1.0;"/>
            <path d="M329.2656,97.875 Q329.4219,97.6563 329.6094,97.5469 Q329.7969,97.4375 330.0156,97.4375 Q330.3906,97.4375 330.625,97.7031 Q330.8594,97.9531 330.8594,98.5625 L330.8594,100.0156 Q330.8594,100.625 330.625,100.8906 Q330.3906,101.1563 330.0156,101.1563 Q329.6719,101.1563 329.4688,100.9531 Q329.2656,100.7656 329.1563,100.25 Q329.1094,99.8906 328.9219,99.7031 Q328.5938,99.3281 327.9844,99.1094 Q327.375,98.8906 326.75,98.8906 Q325.9844,98.8906 325.3438,99.2188 Q324.7188,99.5469 324.2188,100.2969 Q323.7344,101.0469 323.7344,102.0781 L323.7344,103.1719 Q323.7344,104.4063 324.625,105.2344 Q325.5156,106.0469 327.1094,106.0469 Q328.0469,106.0469 328.7031,105.7969 Q329.0938,105.6406 329.5156,105.2031 Q329.7813,104.9375 329.9219,104.8594 Q330.0781,104.7813 330.2813,104.7813 Q330.6094,104.7813 330.8594,105.0469 Q331.125,105.2969 331.125,105.6406 Q331.125,105.9844 330.7813,106.3906 Q330.2813,106.9688 329.4844,107.2969 Q328.4063,107.75 327.1094,107.75 Q325.5938,107.75 324.3906,107.125 Q323.4063,106.625 322.7188,105.5625 Q322.0313,104.4844 322.0313,103.2031 L322.0313,102.0469 Q322.0313,100.7188 322.6406,99.5781 Q323.2656,98.4219 324.3594,97.8125 Q325.4531,97.1875 326.6875,97.1875 Q327.4219,97.1875 328.0625,97.3594 Q328.7188,97.5156 329.2656,97.875 Z " fill="#000000"/>
            <text fill="#000000" font-family="sans-serif" font-size="14" lengthAdjust="spacing" textLength="51" x="340.5" y="107.7285">Booking</text>
            <line style="stroke:#181818;stroke-width:0.5;" x1="312.5" x2="393.5" y1="118" y2="118"/>
            <line style="stroke:#181818;stroke-width:0.5;" x1="312.5" x2="393.5" y1="126" y2="126"/>
        </g>
        <!--class ExtraOrders-->
        <g id="elem_ExtraOrders">
            <rect codeLine="2" fill="#F1F1F1" height="48" id="ExtraOrders" rx="2.5" ry="2.5" style="stroke:#181818;stroke-width:0.5;" width="108" x="46" y="86"/>
            <ellipse cx="61" cy="102" fill="#ADD1B2" rx="11" ry="11" style="stroke:#181818;stroke-width:1.0;"/>
            <path d="M63.7656,97.875 Q63.9219,97.6563 64.1094,97.5469 Q64.2969,97.4375 64.5156,97.4375 Q64.8906,97.4375 65.125,97.7031 Q65.3594,97.9531 65.3594,98.5625 L65.3594,100.0156 Q65.3594,100.625 65.125,100.8906 Q64.8906,101.1563 64.5156,101.1563 Q64.1719,101.1563 63.9688,100.9531 Q63.7656,100.7656 63.6563,100.25 Q63.6094,99.8906 63.4219,99.7031 Q63.0938,99.3281 62.4844,99.1094 Q61.875,98.8906 61.25,98.8906 Q60.4844,98.8906 59.8438,99.2188 Q59.2188,99.5469 58.7188,100.2969 Q58.2344,101.0469 58.2344,102.0781 L58.2344,103.1719 Q58.2344,104.4063 59.125,105.2344 Q60.0156,106.0469 61.6094,106.0469 Q62.5469,106.0469 63.2031,105.7969 Q63.5938,105.6406 64.0156,105.2031 Q64.2813,104.9375 64.4219,104.8594 Q64.5781,104.7813 64.7813,104.7813 Q65.1094,104.7813 65.3594,105.0469 Q65.625,105.2969 65.625,105.6406 Q65.625,105.9844 65.2813,106.3906 Q64.7813,106.9688 63.9844,107.2969 Q62.9063,107.75 61.6094,107.75 Q60.0938,107.75 58.8906,107.125 Q57.9063,106.625 57.2188,105.5625 Q56.5313,104.4844 56.5313,103.2031 L56.5313,102.0469 Q56.5313,100.7188 57.1406,99.5781 Q57.7656,98.4219 58.8594,97.8125 Q59.9531,97.1875 61.1875,97.1875 Q61.9219,97.1875 62.5625,97.3594 Q63.2188,97.5156 63.7656,97.875 Z " fill="#000000"/>
            <text fill="#000000" font-family="sans-serif" font-size="14" lengthAdjust="spacing" textLength="76" x="75" y="107.7285">ExtraOrders</text>
            <line style="stroke:#181818;stroke-width:0.5;" x1="47" x2="153" y1="118" y2="118"/>
            <line style="stroke:#181818;stroke-width:0.5;" x1="47" x2="153" y1="126" y2="126"/>
        </g>
        <!--class Food-->
        <g id="elem_Food">
            <rect codeLine="3" fill="#F1F1F1" height="48" id="Food" rx="2.5" ry="2.5" style="stroke:#181818;stroke-width:0.5;" width="65" x="429.5" y="86"/>
            <ellipse cx="444.5" cy="102" fill="#ADD1B2" rx="11" ry="11" style="stroke:#181818;stroke-width:1.0;"/>
            <path d="M447.2656,97.875 Q447.4219,97.6563 447.6094,97.5469 Q447.7969,97.4375 448.0156,97.4375 Q448.3906,97.4375 448.625,97.7031 Q448.8594,97.9531 448.8594,98.5625 L448.8594,100.0156 Q448.8594,100.625 448.625,100.8906 Q448.3906,101.1563 448.0156,101.1563 Q447.6719,101.1563 447.4688,100.9531 Q447.2656,100.7656 447.1563,100.25 Q447.1094,99.8906 446.9219,99.7031 Q446.5938,99.3281 445.9844,99.1094 Q445.375,98.8906 444.75,98.8906 Q443.9844,98.8906 443.3438,99.2188 Q442.7188,99.5469 442.2188,100.2969 Q441.7344,101.0469 441.7344,102.0781 L441.7344,103.1719 Q441.7344,104.4063 442.625,105.2344 Q443.5156,106.0469 445.1094,106.0469 Q446.0469,106.0469 446.7031,105.7969 Q447.0938,105.6406 447.5156,105.2031 Q447.7813,104.9375 447.9219,104.8594 Q448.0781,104.7813 448.2813,104.7813 Q448.6094,104.7813 448.8594,105.0469 Q449.125,105.2969 449.125,105.6406 Q449.125,105.9844 448.7813,106.3906 Q448.2813,106.9688 447.4844,107.2969 Q446.4063,107.75 445.1094,107.75 Q443.5938,107.75 442.3906,107.125 Q441.4063,106.625 440.7188,105.5625 Q440.0313,104.4844 440.0313,103.2031 L440.0313,102.0469 Q440.0313,100.7188 440.6406,99.5781 Q441.2656,98.4219 442.3594,97.8125 Q443.4531,97.1875 444.6875,97.1875 Q445.4219,97.1875 446.0625,97.3594 Q446.7188,97.5156 447.2656,97.875 Z " fill="#000000"/>
            <text fill="#000000" font-family="sans-serif" font-size="14" lengthAdjust="spacing" textLength="33" x="458.5" y="107.7285">Food</text>
            <line style="stroke:#181818;stroke-width:0.5;" x1="430.5" x2="493.5" y1="118" y2="118"/>
            <line style="stroke:#181818;stroke-width:0.5;" x1="430.5" x2="493.5" y1="126" y2="126"/>
        </g>
        <!--class Item-->
        <g id="elem_Item">
            <rect codeLine="4" fill="#F1F1F1" height="48" id="Item" rx="2.5" ry="2.5" style="stroke:#181818;stroke-width:0.5;" width="58" x="530" y="86"/>
            <ellipse cx="545" cy="102" fill="#ADD1B2" rx="11" ry="11" style="stroke:#181818;stroke-width:1.0;"/>
            <path d="M547.7656,97.875 Q547.9219,97.6563 548.1094,97.5469 Q548.2969,97.4375 548.5156,97.4375 Q548.8906,97.4375 549.125,97.7031 Q549.3594,97.9531 549.3594,98.5625 L549.3594,100.0156 Q549.3594,100.625 549.125,100.8906 Q548.8906,101.1563 548.5156,101.1563 Q548.1719,101.1563 547.9688,100.9531 Q547.7656,100.7656 547.6563,100.25 Q547.6094,99.8906 547.4219,99.7031 Q547.0938,99.3281 546.4844,99.1094 Q545.875,98.8906 545.25,98.8906 Q544.4844,98.8906 543.8438,99.2188 Q543.2188,99.5469 542.7188,100.2969 Q542.2344,101.0469 542.2344,102.0781 L542.2344,103.1719 Q542.2344,104.4063 543.125,105.2344 Q544.0156,106.0469 545.6094,106.0469 Q546.5469,106.0469 547.2031,105.7969 Q547.5938,105.6406 548.0156,105.2031 Q548.2813,104.9375 548.4219,104.8594 Q548.5781,104.7813 548.7813,104.7813 Q549.1094,104.7813 549.3594,105.0469 Q549.625,105.2969 549.625,105.6406 Q549.625,105.9844 549.2813,106.3906 Q548.7813,106.9688 547.9844,107.2969 Q546.9063,107.75 545.6094,107.75 Q544.0938,107.75 542.8906,107.125 Q541.9063,106.625 541.2188,105.5625 Q540.5313,104.4844 540.5313,103.2031 L540.5313,102.0469 Q540.5313,100.7188 541.1406,99.5781 Q541.7656,98.4219 542.8594,97.8125 Q543.9531,97.1875 545.1875,97.1875 Q545.9219,97.1875 546.5625,97.3594 Q547.2188,97.5156 547.7656,97.875 Z " fill="#000000"/>
            <text fill="#000000" font-family="sans-serif" font-size="14" lengthAdjust="spacing" textLength="26" x="559" y="107.7285">Item</text>
            <line style="stroke:#181818;stroke-width:0.5;" x1="531" x2="587" y1="118" y2="118"/>
            <line style="stroke:#181818;stroke-width:0.5;" x1="531" x2="587" y1="126" y2="126"/>
        </g>
        <!--class Order-->
        <g id="elem_Order">
            <rect codeLine="5" fill="#F1F1F1" height="48" id="Order" rx="2.5" ry="2.5" style="stroke:#181818;stroke-width:0.5;" width="69" x="65.5" y="230"/>
            <ellipse cx="80.5" cy="246" fill="#ADD1B2" rx="11" ry="11" style="stroke:#181818;stroke-width:1.0;"/>
            <path d="M83.2656,241.875 Q83.4219,241.6563 83.6094,241.5469 Q83.7969,241.4375 84.0156,241.4375 Q84.3906,241.4375 84.625,241.7031 Q84.8594,241.9531 84.8594,242.5625 L84.8594,244.0156 Q84.8594,244.625 84.625,244.8906 Q84.3906,245.1563 84.0156,245.1563 Q83.6719,245.1563 83.4688,244.9531 Q83.2656,244.7656 83.1563,244.25 Q83.1094,243.8906 82.9219,243.7031 Q82.5938,243.3281 81.9844,243.1094 Q81.375,242.8906 80.75,242.8906 Q79.9844,242.8906 79.3438,243.2188 Q78.7188,243.5469 78.2188,244.2969 Q77.7344,245.0469 77.7344,246.0781 L77.7344,247.1719 Q77.7344,248.4063 78.625,249.2344 Q79.5156,250.0469 81.1094,250.0469 Q82.0469,250.0469 82.7031,249.7969 Q83.0938,249.6406 83.5156,249.2031 Q83.7813,248.9375 83.9219,248.8594 Q84.0781,248.7813 84.2813,248.7813 Q84.6094,248.7813 84.8594,249.0469 Q85.125,249.2969 85.125,249.6406 Q85.125,249.9844 84.7813,250.3906 Q84.2813,250.9688 83.4844,251.2969 Q82.4063,251.75 81.1094,251.75 Q79.5938,251.75 78.3906,251.125 Q77.4063,250.625 76.7188,249.5625 Q76.0313,248.4844 76.0313,247.2031 L76.0313,246.0469 Q76.0313,244.7188 76.6406,243.5781 Q77.2656,242.4219 78.3594,241.8125 Q79.4531,241.1875 80.6875,241.1875 Q81.4219,241.1875 82.0625,241.3594 Q82.7188,241.5156 83.2656,241.875 Z " fill="#000000"/>
            <text fill="#000000" font-family="sans-serif" font-size="14" lengthAdjust="spacing" textLength="37" x="94.5" y="251.7285">Order</text>
            <line style="stroke:#181818;stroke-width:0.5;" x1="66.5" x2="133.5" y1="262" y2="262"/>
            <line style="stroke:#181818;stroke-width:0.5;" x1="66.5" x2="133.5" y1="270" y2="270"/>
        </g>
        <!--class Payment-->
        <g id="elem_Payment">
            <rect codeLine="6" fill="#F1F1F1" height="48" id="Payment" rx="2.5" ry="2.5" style="stroke:#181818;stroke-width:0.5;" width="87" x="189.5" y="86"/>
            <ellipse cx="204.5" cy="102" fill="#ADD1B2" rx="11" ry="11" style="stroke:#181818;stroke-width:1.0;"/>
            <path d="M207.2656,97.875 Q207.4219,97.6563 207.6094,97.5469 Q207.7969,97.4375 208.0156,97.4375 Q208.3906,97.4375 208.625,97.7031 Q208.8594,97.9531 208.8594,98.5625 L208.8594,100.0156 Q208.8594,100.625 208.625,100.8906 Q208.3906,101.1563 208.0156,101.1563 Q207.6719,101.1563 207.4688,100.9531 Q207.2656,100.7656 207.1563,100.25 Q207.1094,99.8906 206.9219,99.7031 Q206.5938,99.3281 205.9844,99.1094 Q205.375,98.8906 204.75,98.8906 Q203.9844,98.8906 203.3438,99.2188 Q202.7188,99.5469 202.2188,100.2969 Q201.7344,101.0469 201.7344,102.0781 L201.7344,103.1719 Q201.7344,104.4063 202.625,105.2344 Q203.5156,106.0469 205.1094,106.0469 Q206.0469,106.0469 206.7031,105.7969 Q207.0938,105.6406 207.5156,105.2031 Q207.7813,104.9375 207.9219,104.8594 Q208.0781,104.7813 208.2813,104.7813 Q208.6094,104.7813 208.8594,105.0469 Q209.125,105.2969 209.125,105.6406 Q209.125,105.9844 208.7813,106.3906 Q208.2813,106.9688 207.4844,107.2969 Q206.4063,107.75 205.1094,107.75 Q203.5938,107.75 202.3906,107.125 Q201.4063,106.625 200.7188,105.5625 Q200.0313,104.4844 200.0313,103.2031 L200.0313,102.0469 Q200.0313,100.7188 200.6406,99.5781 Q201.2656,98.4219 202.3594,97.8125 Q203.4531,97.1875 204.6875,97.1875 Q205.4219,97.1875 206.0625,97.3594 Q206.7188,97.5156 207.2656,97.875 Z " fill="#000000"/>
            <text fill="#000000" font-family="sans-serif" font-size="14" lengthAdjust="spacing" textLength="55" x="218.5" y="107.7285">Payment</text>
            <line style="stroke:#181818;stroke-width:0.5;" x1="190.5" x2="275.5" y1="118" y2="118"/>
            <line style="stroke:#181818;stroke-width:0.5;" x1="190.5" x2="275.5" y1="126" y2="126"/>
        </g>
        <!--class Room-->
        <g id="elem_Room">
            <rect codeLine="7" fill="#F1F1F1" height="48" id="Room" rx="2.5" ry="2.5" style="stroke:#181818;stroke-width:0.5;" width="69" x="169.5" y="230"/>
            <ellipse cx="184.5" cy="246" fill="#ADD1B2" rx="11" ry="11" style="stroke:#181818;stroke-width:1.0;"/>
            <path d="M187.2656,241.875 Q187.4219,241.6563 187.6094,241.5469 Q187.7969,241.4375 188.0156,241.4375 Q188.3906,241.4375 188.625,241.7031 Q188.8594,241.9531 188.8594,242.5625 L188.8594,244.0156 Q188.8594,244.625 188.625,244.8906 Q188.3906,245.1563 188.0156,245.1563 Q187.6719,245.1563 187.4688,244.9531 Q187.2656,244.7656 187.1563,244.25 Q187.1094,243.8906 186.9219,243.7031 Q186.5938,243.3281 185.9844,243.1094 Q185.375,242.8906 184.75,242.8906 Q183.9844,242.8906 183.3438,243.2188 Q182.7188,243.5469 182.2188,244.2969 Q181.7344,245.0469 181.7344,246.0781 L181.7344,247.1719 Q181.7344,248.4063 182.625,249.2344 Q183.5156,250.0469 185.1094,250.0469 Q186.0469,250.0469 186.7031,249.7969 Q187.0938,249.6406 187.5156,249.2031 Q187.7813,248.9375 187.9219,248.8594 Q188.0781,248.7813 188.2813,248.7813 Q188.6094,248.7813 188.8594,249.0469 Q189.125,249.2969 189.125,249.6406 Q189.125,249.9844 188.7813,250.3906 Q188.2813,250.9688 187.4844,251.2969 Q186.4063,251.75 185.1094,251.75 Q183.5938,251.75 182.3906,251.125 Q181.4063,250.625 180.7188,249.5625 Q180.0313,248.4844 180.0313,247.2031 L180.0313,246.0469 Q180.0313,244.7188 180.6406,243.5781 Q181.2656,242.4219 182.3594,241.8125 Q183.4531,241.1875 184.6875,241.1875 Q185.4219,241.1875 186.0625,241.3594 Q186.7188,241.5156 187.2656,241.875 Z " fill="#000000"/>
            <text fill="#000000" font-family="sans-serif" font-size="14" lengthAdjust="spacing" textLength="37" x="198.5" y="251.7285">Room</text>
            <line style="stroke:#181818;stroke-width:0.5;" x1="170.5" x2="237.5" y1="262" y2="262"/>
            <line style="stroke:#181818;stroke-width:0.5;" x1="170.5" x2="237.5" y1="270" y2="270"/>
        </g>
        <!--class RoomFare-->
        <g id="elem_RoomFare">
            <rect codeLine="8" fill="#F1F1F1" height="48" id="RoomFare" rx="2.5" ry="2.5" style="stroke:#181818;stroke-width:0.5;" width="99" x="273.5" y="230"/>
            <ellipse cx="288.5" cy="246" fill="#ADD1B2" rx="11" ry="11" style="stroke:#181818;stroke-width:1.0;"/>
            <path d="M291.2656,241.875 Q291.4219,241.6563 291.6094,241.5469 Q291.7969,241.4375 292.0156,241.4375 Q292.3906,241.4375 292.625,241.7031 Q292.8594,241.9531 292.8594,242.5625 L292.8594,244.0156 Q292.8594,244.625 292.625,244.8906 Q292.3906,245.1563 292.0156,245.1563 Q291.6719,245.1563 291.4688,244.9531 Q291.2656,244.7656 291.1563,244.25 Q291.1094,243.8906 290.9219,243.7031 Q290.5938,243.3281 289.9844,243.1094 Q289.375,242.8906 288.75,242.8906 Q287.9844,242.8906 287.3438,243.2188 Q286.7188,243.5469 286.2188,244.2969 Q285.7344,245.0469 285.7344,246.0781 L285.7344,247.1719 Q285.7344,248.4063 286.625,249.2344 Q287.5156,250.0469 289.1094,250.0469 Q290.0469,250.0469 290.7031,249.7969 Q291.0938,249.6406 291.5156,249.2031 Q291.7813,248.9375 291.9219,248.8594 Q292.0781,248.7813 292.2813,248.7813 Q292.6094,248.7813 292.8594,249.0469 Q293.125,249.2969 293.125,249.6406 Q293.125,249.9844 292.7813,250.3906 Q292.2813,250.9688 291.4844,251.2969 Q290.4063,251.75 289.1094,251.75 Q287.5938,251.75 286.3906,251.125 Q285.4063,250.625 284.7188,249.5625 Q284.0313,248.4844 284.0313,247.2031 L284.0313,246.0469 Q284.0313,244.7188 284.6406,243.5781 Q285.2656,242.4219 286.3594,241.8125 Q287.4531,241.1875 288.6875,241.1875 Q289.4219,241.1875 290.0625,241.3594 Q290.7188,241.5156 291.2656,241.875 Z " fill="#000000"/>
            <text fill="#000000" font-family="sans-serif" font-size="14" lengthAdjust="spacing" textLength="67" x="302.5" y="251.7285">RoomFare</text>
            <line style="stroke:#181818;stroke-width:0.5;" x1="274.5" x2="371.5" y1="262" y2="262"/>
            <line style="stroke:#181818;stroke-width:0.5;" x1="274.5" x2="371.5" y1="270" y2="270"/>
        </g>
        <!--class UserInfo-->
        <g id="elem_UserInfo">
            <rect codeLine="9" fill="#F1F1F1" height="48" id="UserInfo" rx="2.5" ry="2.5" style="stroke:#181818;stroke-width:0.5;" width="84" x="58" y="338"/>
            <ellipse cx="73" cy="354" fill="#ADD1B2" rx="11" ry="11" style="stroke:#181818;stroke-width:1.0;"/>
            <path d="M75.7656,349.875 Q75.9219,349.6563 76.1094,349.5469 Q76.2969,349.4375 76.5156,349.4375 Q76.8906,349.4375 77.125,349.7031 Q77.3594,349.9531 77.3594,350.5625 L77.3594,352.0156 Q77.3594,352.625 77.125,352.8906 Q76.8906,353.1563 76.5156,353.1563 Q76.1719,353.1563 75.9688,352.9531 Q75.7656,352.7656 75.6563,352.25 Q75.6094,351.8906 75.4219,351.7031 Q75.0938,351.3281 74.4844,351.1094 Q73.875,350.8906 73.25,350.8906 Q72.4844,350.8906 71.8438,351.2188 Q71.2188,351.5469 70.7188,352.2969 Q70.2344,353.0469 70.2344,354.0781 L70.2344,355.1719 Q70.2344,356.4063 71.125,357.2344 Q72.0156,358.0469 73.6094,358.0469 Q74.5469,358.0469 75.2031,357.7969 Q75.5938,357.6406 76.0156,357.2031 Q76.2813,356.9375 76.4219,356.8594 Q76.5781,356.7813 76.7813,356.7813 Q77.1094,356.7813 77.3594,357.0469 Q77.625,357.2969 77.625,357.6406 Q77.625,357.9844 77.2813,358.3906 Q76.7813,358.9688 75.9844,359.2969 Q74.9063,359.75 73.6094,359.75 Q72.0938,359.75 70.8906,359.125 Q69.9063,358.625 69.2188,357.5625 Q68.5313,356.4844 68.5313,355.2031 L68.5313,354.0469 Q68.5313,352.7188 69.1406,351.5781 Q69.7656,350.4219 70.8594,349.8125 Q71.9531,349.1875 73.1875,349.1875 Q73.9219,349.1875 74.5625,349.3594 Q75.2188,349.5156 75.7656,349.875 Z " fill="#000000"/>
            <text fill="#000000" font-family="sans-serif" font-size="14" lengthAdjust="spacing" textLength="52" x="87" y="359.7285">UserInfo</text>
            <line style="stroke:#181818;stroke-width:0.5;" x1="59" x2="141" y1="370" y2="370"/>
            <line style="stroke:#181818;stroke-width:0.5;" x1="59" x2="141" y1="378" y2="378"/>
        </g>
        <!--class ArrayList-->
        <g id="elem_ArrayList">
            <rect codeLine="10" fill="#F1F1F1" height="48" id="ArrayList" rx="2.5" ry="2.5" style="stroke:#181818;stroke-width:0.5;" width="88" x="692" y="230"/>
            <ellipse cx="707" cy="246" fill="#ADD1B2" rx="11" ry="11" style="stroke:#181818;stroke-width:1.0;"/>
            <path d="M709.7656,241.875 Q709.9219,241.6563 710.1094,241.5469 Q710.2969,241.4375 710.5156,241.4375 Q710.8906,241.4375 711.125,241.7031 Q711.3594,241.9531 711.3594,242.5625 L711.3594,244.0156 Q711.3594,244.625 711.125,244.8906 Q710.8906,245.1563 710.5156,245.1563 Q710.1719,245.1563 709.9688,244.9531 Q709.7656,244.7656 709.6563,244.25 Q709.6094,243.8906 709.4219,243.7031 Q709.0938,243.3281 708.4844,243.1094 Q707.875,242.8906 707.25,242.8906 Q706.4844,242.8906 705.8438,243.2188 Q705.2188,243.5469 704.7188,244.2969 Q704.2344,245.0469 704.2344,246.0781 L704.2344,247.1719 Q704.2344,248.4063 705.125,249.2344 Q706.0156,250.0469 707.6094,250.0469 Q708.5469,250.0469 709.2031,249.7969 Q709.5938,249.6406 710.0156,249.2031 Q710.2813,248.9375 710.4219,248.8594 Q710.5781,248.7813 710.7813,248.7813 Q711.1094,248.7813 711.3594,249.0469 Q711.625,249.2969 711.625,249.6406 Q711.625,249.9844 711.2813,250.3906 Q710.7813,250.9688 709.9844,251.2969 Q708.9063,251.75 707.6094,251.75 Q706.0938,251.75 704.8906,251.125 Q703.9063,250.625 703.2188,249.5625 Q702.5313,248.4844 702.5313,247.2031 L702.5313,246.0469 Q702.5313,244.7188 703.1406,243.5781 Q703.7656,242.4219 704.8594,241.8125 Q705.9531,241.1875 707.1875,241.1875 Q707.9219,241.1875 708.5625,241.3594 Q709.2188,241.5156 709.7656,241.875 Z " fill="#000000"/>
            <text fill="#000000" font-family="sans-serif" font-size="14" lengthAdjust="spacing" textLength="56" x="721" y="251.7285">ArrayList</text>
            <line style="stroke:#181818;stroke-width:0.5;" x1="693" x2="779" y1="262" y2="262"/>
            <line style="stroke:#181818;stroke-width:0.5;" x1="693" x2="779" y1="270" y2="270"/>
        </g>
        <!--class Date-->
        <g id="elem_Date">
            <rect codeLine="11" fill="#F1F1F1" height="48" id="Date" rx="2.5" ry="2.5" style="stroke:#181818;stroke-width:0.5;" width="62" x="815" y="230"/>
            <ellipse cx="830" cy="246" fill="#ADD1B2" rx="11" ry="11" style="stroke:#181818;stroke-width:1.0;"/>
            <path d="M832.7656,241.875 Q832.9219,241.6563 833.1094,241.5469 Q833.2969,241.4375 833.5156,241.4375 Q833.8906,241.4375 834.125,241.7031 Q834.3594,241.9531 834.3594,242.5625 L834.3594,244.0156 Q834.3594,244.625 834.125,244.8906 Q833.8906,245.1563 833.5156,245.1563 Q833.1719,245.1563 832.9688,244.9531 Q832.7656,244.7656 832.6563,244.25 Q832.6094,243.8906 832.4219,243.7031 Q832.0938,243.3281 831.4844,243.1094 Q830.875,242.8906 830.25,242.8906 Q829.4844,242.8906 828.8438,243.2188 Q828.2188,243.5469 827.7188,244.2969 Q827.2344,245.0469 827.2344,246.0781 L827.2344,247.1719 Q827.2344,248.4063 828.125,249.2344 Q829.0156,250.0469 830.6094,250.0469 Q831.5469,250.0469 832.2031,249.7969 Q832.5938,249.6406 833.0156,249.2031 Q833.2813,248.9375 833.4219,248.8594 Q833.5781,248.7813 833.7813,248.7813 Q834.1094,248.7813 834.3594,249.0469 Q834.625,249.2969 834.625,249.6406 Q834.625,249.9844 834.2813,250.3906 Q833.7813,250.9688 832.9844,251.2969 Q831.9063,251.75 830.6094,251.75 Q829.0938,251.75 827.8906,251.125 Q826.9063,250.625 826.2188,249.5625 Q825.5313,248.4844 825.5313,247.2031 L825.5313,246.0469 Q825.5313,244.7188 826.1406,243.5781 Q826.7656,242.4219 827.8594,241.8125 Q828.9531,241.1875 830.1875,241.1875 Q830.9219,241.1875 831.5625,241.3594 Q832.2188,241.5156 832.7656,241.875 Z " fill="#000000"/>
            <text fill="#000000" font-family="sans-serif" font-size="14" lengthAdjust="spacing" textLength="30" x="844" y="251.7285">Date</text>
            <line style="stroke:#181818;stroke-width:0.5;" x1="816" x2="876" y1="262" y2="262"/>
            <line style="stroke:#181818;stroke-width:0.5;" x1="816" x2="876" y1="270" y2="270"/>
        </g>
        <!--link Booking to ArrayList-->
        <g id="link_Booking_ArrayList">
            <path codeLine="12" d="M394.7,129.2 C400.43,131.12 406.3,132.8 412,134 C453.79,142.76 564.19,126.54 604,142 C651.17,160.32 689.6432,198.3109 713.0232,225.0809 " fill="none" id="Booking-to-ArrayList" style="stroke:#181818;stroke-width:1.0;stroke-dasharray:7.0,7.0;"/>
            <polygon fill="#181818" points="716.97,229.6,714.0625,220.1901,713.681,225.8341,708.037,225.4526,716.97,229.6" style="stroke:#181818;stroke-width:1.0;"/>
        </g>
        <!--link Booking to Date-->
        <g id="link_Booking_Date">
            <path codeLine="13" d="M394.68,129.31 C400.41,131.21 406.29,132.86 412,134 C433.04,138.18 780.2,130.04 798,142 C827.28,161.67 837.7972,197.4144 842.2572,223.7244 " fill="none" id="Booking-to-Date" style="stroke:#181818;stroke-width:1.0;stroke-dasharray:7.0,7.0;"/>
            <polygon fill="#181818" points="843.26,229.64,845.6995,220.0981,842.4243,224.7103,837.8121,221.4351,843.26,229.64" style="stroke:#181818;stroke-width:1.0;"/>
        </g>
        <!--link Payment to ArrayList-->
        <g id="link_Payment_ArrayList">
            <path codeLine="14" d="M276.8,129.49 C282.51,131.31 288.34,132.89 294,134 C327.81,140.61 571.78,129.78 604,142 C651.59,160.05 690.265,198.5419 713.505,225.4119 " fill="none" id="Payment-to-ArrayList" style="stroke:#181818;stroke-width:1.0;stroke-dasharray:7.0,7.0;"/>
            <polygon fill="#181818" points="717.43,229.95,714.5679,220.5262,714.1592,226.1683,708.5171,225.7595,717.43,229.95" style="stroke:#181818;stroke-width:1.0;"/>
        </g>
        <!--SRC=[Iyv9B2vMy3JMSmOnKelrdFBpipFpqhcIqILSAqgA4lsBKbABYZ4btVBpKp15FKjISp55mMPW2WSaLkQcvfLWIWJbv-TY5tLBB4h5b0ajJYtop4lBXyfa9PObwfMMPEReEHOL9LRwP1QNOCYu99QaSc46WeAUdXrM_GILeXi8zHmk0m40]-->
    </g>
</svg>
